# xmcd
#
# Track frame offsets:
#  150
#  13672
#  23372
#  33647
#  45197
#  57262
#  67272
#  81222
#  93605
#  106535
#  116510
#  128135
#
# Disc length: 1832 seconds
#
# Revision: 0
# Processed by: cddbd v1.5.1PL0 Copyright (c) Steve Scherf et al.
# Submitted via: Collectorz.com_Music_Collector 6.9
#
DISCID=9007260c
DTITLE=Loretta Lynn - 36 All Time Greatest Hits [CD 1 Of 3)
DYEAR=1998
DGENRE=Country
TTITLE0=Coal Miner's Daughter
TTITLE1=Don't Come Home A Drinkin' (With Lovin' On Your Mind)
TTITLE2=Dear Uncle Sam
TTITLE3=Before I'm Over You
TTITLE4=Blue Kentucky Girl
TTITLE5=Fist City
TTITLE6=I Lie
TTITLE7=Here I Am Again
TTITLE8=Hey Loretta
TTITLE9=Home
TTITLE10=I Know How
TTITLE11=Happy Birthday
EXTD=
EXTT0=
EXTT1=
EXTT2=
EXTT3=
EXTT4=
EXTT5=
EXTT6=
EXTT7=
EXTT8=
EXTT9=
EXTT10=
EXTT11=
PLAYORDER=
